<svg width="24" height="16" viewBox="0 0 24 16" fill="none" xmlns="http://www.w3.org/2000/svg">
<path d="M12.8966 15C10.7125 14.9207 8.7972 14.4139 7.1843 13.3012C6.93788 13.1313 6.73627 13.1199 6.43386 13.1964C5.33619 13.471 4.22732 13.723 3.11846 13.9722C2.87951 14.026 2.6219 14.0401 2.37175 14.0515C2.04693 14.0656 1.92372 13.9241 2.04693 13.7089C2.20747 13.4314 2.40908 13.1681 2.60696 12.9048C3.18566 12.1459 3.7793 11.3899 4.35426 10.6283C4.41027 10.5575 4.4364 10.4358 4.39907 10.365C3.48435 8.70576 3.57769 7.04089 4.43267 5.39867C5.96343 2.47098 9.59618 0.774963 13.7404 1.02413C17.7503 1.2648 21.0769 3.59505 21.8385 6.69546C22.6972 10.1838 20.0613 13.5531 15.5997 14.6093C14.7298 14.816 13.9607 15 12.8966 15ZM2.95792 13.5475C3.37981 13.4512 3.70463 13.3776 4.02945 13.3012C4.9479 13.086 5.86635 12.8594 6.78854 12.6584C7.08723 12.5848 7.19923 12.7292 7.22537 12.7434C7.98701 13.2474 8.91294 13.6607 9.53271 13.8788C11.0896 14.4309 12.7286 14.5725 14.4013 14.3063C18.9973 13.5758 21.8385 10.4754 21.1851 6.95028C20.5355 3.45915 15.7677 0.933523 11.2352 1.68102C6.34052 2.49363 3.48061 5.98477 4.73882 9.70808C4.96283 10.3735 4.90683 10.9199 4.47001 11.4805C4.4028 11.5683 4.3468 11.6618 4.28333 11.7495C3.8577 12.33 3.42834 12.9076 2.95792 13.5475Z" stroke="white" stroke-width="2"/>
</svg>
